<svg id="Layer_1" enable-background="new 0 0 510 510" height="512" viewBox="0 0 510 510" width="512" xmlns="http://www.w3.org/2000/svg"><g><path d="m255 0c-140.93 0-255 114.049-255 255 0 140.932 114.05 255 255 255 140.932 0 255-114.049 255-255 0-140.932-114.049-255-255-255zm0 480c-124.065 0-225-100.935-225-225s100.935-225 225-225 225 100.935 225 225-100.935 225-225 225z"/><path d="m105.717 351.417 28.565 9.166 19.439-60.583h52.558l19.439 60.583 28.565-9.166-74.283-231.515zm57.63-81.417 16.653-51.902 16.653 51.902z"/><path d="m360 105h-30v31.898c-25.85 6.678-45 30.195-45 58.102v15c0 33.084 26.916 60 60 60 16.542 0 30 13.458 30 30s-13.458 30-30 30h-60v30h45v30h30v-31.898c25.85-6.678 45-30.195 45-58.102 0-33.084-26.916-60-60-60-16.542 0-30-13.458-30-30v-15c0-16.542 13.458-30 30-30h60v-30h-45z"/></g></svg>